/* XPM */
static char *_wo3v_ox189[] = {
/* columns rows colors chars-per-pixel */
"48 48 202 2 ",
"   c #0093C9",
".  c #0093CA",
"X  c #0093CB",
"o  c #0094C9",
"O  c #0094CA",
"+  c #0095CA",
"@  c #0094CB",
"#  c #0095CB",
"$  c #0096CB",
"%  c #0095CC",
"&  c #0095CD",
"*  c #0096CC",
"=  c #0096CD",
"-  c #0097CD",
";  c #0096CE",
":  c #0097CE",
">  c #0096CF",
",  c #0097CF",
"<  c #0098CF",
"1  c #0097D0",
"2  c #0098D0",
"3  c #0099D0",
"4  c #0098D1",
"5  c #0099D1",
"6  c #0099D2",
"7  c #0098D3",
"8  c #0099D3",
"9  c #009AD2",
"0  c #009AD3",
"q  c #009BD3",
"w  c #0099D4",
"e  c #009AD4",
"r  c #009BD4",
"t  c #009AD5",
"y  c #009BD5",
"u  c #009BD6",
"i  c #009CD5",
"p  c #009DD6",
"a  c #009DD7",
"s  c #009CD8",
"d  c #009DD8",
"f  c #009ED8",
"g  c #009ED9",
"h  c #009EDA",
"j  c #00A0DC",
"k  c #00A0DD",
"l  c #00A1DD",
"z  c #00A0DE",
"x  c #00A1DE",
"c  c #00A0DF",
"v  c #00A1DF",
"b  c #00A2DE",
"n  c #00A2DF",
"m  c #03A2DF",
"M  c #05A3DE",
"N  c #09A5DF",
"B  c #00A1E0",
"V  c #00A2E0",
"C  c #00A3E0",
"Z  c #00A3E1",
"A  c #00A3E2",
"S  c #00A4E1",
"D  c #00A4E2",
"F  c #00A4E3",
"G  c #00A5E3",
"H  c #00A5E4",
"J  c #00A6E4",
"K  c #00A6E5",
"L  c #00A6E6",
"P  c #00A7E6",
"I  c #0BA6E0",
"U  c #00A8E7",
"Y  c #00A8E8",
"T  c #00A9E9",
"R  c #00AAEA",
"E  c #11AAE3",
"W  c #17A8E1",
"Q  c #1BAAE1",
"!  c #19A9E2",
"~  c #18AAE2",
"^  c #1AABE2",
"/  c #1CABE2",
"(  c #1EADE2",
")  c #1DADE4",
"_  c #20ACE2",
"`  c #20AEE2",
"'  c #21AEE2",
"]  c #23AEE3",
"[  c #26AFE3",
"{  c #27AFE3",
"}  c #21ADE4",
"|  c #23AEE4",
" . c #22AEE5",
".. c #25AFE4",
"X. c #27AFE4",
"o. c #26B0E3",
"O. c #25B0E4",
"+. c #26B0E4",
"@. c #27B0E4",
"#. c #2CB2E3",
"$. c #28B0E5",
"%. c #2AB1E4",
"&. c #2BB1E5",
"*. c #2CB1E4",
"=. c #2CB2E4",
"-. c #2DB2E4",
";. c #2CB2E5",
":. c #2DB2E5",
">. c #2DB3E5",
",. c #2EB3E4",
"<. c #2FB3E4",
"1. c #2EB2E5",
"2. c #2EB3E5",
"3. c #2FB3E5",
"4. c #30B3E5",
"5. c #30B3E6",
"6. c #31B4E5",
"7. c #32B4E4",
"8. c #30B4E6",
"9. c #30B4E7",
"0. c #32B4E6",
"q. c #33B4E6",
"w. c #32B5E6",
"e. c #32B6E7",
"r. c #33B6E7",
"t. c #34B4E5",
"y. c #34B5E5",
"u. c #34B5E6",
"i. c #35B6E7",
"p. c #37B6E6",
"a. c #36B7E7",
"s. c #37B7E7",
"d. c #38B6E5",
"f. c #3AB6E5",
"g. c #3AB8E7",
"h. c #3BB8E7",
"j. c #3DB8E6",
"k. c #3FB9E6",
"l. c #34B7E8",
"z. c #38B7E8",
"x. c #39B8E8",
"c. c #3BBAEA",
"v. c #3CBAE9",
"b. c #3DBBEA",
"n. c #3DBCEB",
"m. c #3EBCEB",
"M. c #3DBCEC",
"N. c #3EBCEC",
"B. c #3EBDEC",
"V. c #3FBDEC",
"C. c #3EBDED",
"Z. c #3FBEEE",
"A. c #42B9E6",
"S. c #42BAE6",
"D. c #42BAE7",
"F. c #43BAE7",
"G. c #43BBE7",
"H. c #43BAE8",
"J. c #42BBE8",
"K. c #43BBE8",
"L. c #45BAE8",
"P. c #44BBE9",
"I. c #43BCE9",
"U. c #43BCEA",
"Y. c #43BDEA",
"T. c #43BDEB",
"R. c #44BCE8",
"E. c #44BCE9",
"W. c #45BCE9",
"Q. c #44BCEA",
"!. c #44BDEA",
"~. c #45BDEA",
"^. c #44BDEB",
"/. c #45BDEB",
"(. c #45BEEB",
"). c #40BDEC",
"_. c #43BDEC",
"`. c #43BEEC",
"'. c #41BFEE",
"]. c #42BFEE",
"[. c #43BFEE",
"{. c #45BEEC",
"}. c #44BFED",
"|. c #45BFED",
" X c #46BFEC",
".X c #44BFEE",
"XX c #43C0EE",
"oX c #42C0EF",
"OX c #44C0EE",
"+X c #44C0EF",
"@X c #44C1EF",
"#X c #45C1EF",
"$X c #47C1EF",
"%X c #48C1EF",
"&X c #45C1F0",
"*X c #45C2F1",
"=X c #45C3F2",
"-X c #47C4F2",
";X c #45C4F4",
":X c #46C5F5",
">X c #48CBFC",
",X c None",
/* pixels */
",X,X,X,X,X,X,X,X,X,X,X,X,X,X,X,X,X,X,X,X,X,X,X,X,X,X,X,X,X,X,X,X,X,X,X,X,X,X,X,X,X,X,X,X,X,X,X,X",
",X,X,X,X,X,X,X,X,X,X,X,X,X0 6 , ; , 9 2 ; , 2 w ,X,X,X,X,X,X,X,X,X,X,X,X,X,X,X,X,X,X,X,X,X,X,X,X",
",X,X,X,X,X,X,X,X,X,Xe > 5 < = # @ O O O @ # * < 5 , e ,X,X,X,X,X,X,X,X,X,X,X,X,X,X,X,X,X,X,X,X,X",
",X,X,X,X,X,X,X,Xy = < # O O O O O O O O O O O O O # < = e ,X,X,X,X,X,X,X,X,X,X,X,X,X,X,X,X,X,X,X",
",X,X,X,X,X,X,X5 2 O O O O O O O O O O # % = - - = # O # < 2 f ,X,X,X,X,X,X,X,X,X,X,X,X,X,X,X,X,X",
",X,X,X,X,X,X, = O O O O O O O O # < 2 ; , 2 6 2 4 , = 5 : * 5 u ,Xv D v x ,X,X,X,X,X,X,X,X,X,X,X",
",X,X,X,X,X2 # O O O O O O O % 3 , 6 ,X,X,X,X,X,X,X,X,Xd 8 = 2 9 8 ,Xx Y K v v ,X,X,X,X,X,X,X,X,X",
",X,X,X,X2 * O O O O O O # 5 2 u ,X,X,X,X,X,X,X,X,X,X,X,X,X,Xt : p e ,XV D n K n ,X,X,X,X,X,X,X,X",
",X,X,X0 < O O O O O O : : y ,X,X,X,X,X,X,X,X,X,X,X,X,X,X,X,X,X,Xe a 0 ,XZ V x C H C ,X,X,X,X,X,X",
",X,X,X5 O O O O O O 3 0 ,X,X,X,X,X,X,X,X,X,X,X,X,X,X,X,X,X,X,X,X,Xs 9 ,X,XH x x x P x ,X,X,X,X,X",
",X,X1 = O O O O # : u ,X,X,X,X,X,X,X,X,X,X,X,X,X,X,X,X,X,X,X,X,X,X,X,X0 ,Xc D x x x L b ,X,X,X,X",
",X,X2 O O O O # , ,X,X,X,X,X,X,X,X,X,X,X,X,X,X,X,X,X,X,X,X,X,X,X,X,X,X,Xh ,XA v x x n F ,X,X,X,X",
",Xy 3 O O O # , ,X,X,X,X,X,X,X,X,X,X,X,X,X,X,X,X,X,X,X,X,X,X,X,X,X,X,X,Xx ,Xx D x x x Z n ,X,X,X",
",X4 = O O O 2 ,X,X,X,X,X,X,X,X,X,X,X,X,X,X,X,X,X,X,X,X,X,X,X,X,X,X,X,X,X,X,X,XH x x x x L z ,X,X",
",X; # O O 3 t ,X,X,X,X,X,X,X,X,X,X,X,X,X,X,X,X,X,X,X,X,X,X,X,X,X,X,X,X,X,X,X,Xv C x x x Z v ,X,X",
",X= @ O - 4 ,X,X,X,X,X,X,X,X,X,X,X,X,X,X,X,X,X,X,X,X,X,X,X,X,X,X,X,X,X,X,X,X,Xx G x x x x G ,X,X",
",X5 O O < ,XM ,X,X,X,X,X,X,X,X- $ ,X,X,X,X,X,X,X,X,X,X,X,X,X,X,X,X,X,X,X,X,X,X,XJ x x x x J v ,X",
",X6 O < 8 ,X~ ,X,X,X,X,X,X: 5 q 0 q - : ,X,X,X,X,XD n Z l ,X,XU.U.J.*X,X,X,X,X,XC n x x x S z ,X",
",X: # : ,X| ,X,X,X,X,X,X2 : O O O O # q = ,X,Xk U H V D l ,XP.=XY.J.=X,X,X,X,X,Xx V x x x V n ,X",
",X; < 4 ,X2.,X,X,X,X,X, % O O @ # O O O 9 O ,XZ V x x Z z j.&XD.D.D.*X,X,X,X,X,Xv Z x x x n l ,X",
",X, 9 ,X+.7.,X,X,X,Xo 5 O O * # O < < < 3 = i D x x x V M j.K.D.D.D.:X,X,X,X,X,Xx A x x x n x ,X",
",X7 > ,Xt.1.,X,X,X,XO # O * % ,X,X,X: O O   u Z x x n x N k.F.D.D.U.+X,X,X,X,X,Xb D x x x n l ,X",
",X,X8 ,XZ.;.,X,X,X,X% O O 0   ,X,X,X,X,X,X,XV P x x K ,X,XJ.J.D.T.H.,X,X,X,X,X,Xx D x x x V l ,X",
",X,X,X) ;X&.,X,X,X,XO O O 6 X ,X,X,X+ % + O e V x n x ,X,X@XD.D.&XD.,X,X,X,X,X,Xv Z x x x Z v ,X",
",X,X,X..-X=.,X,X,X,X@ * O # * ,X,XO i 9 6 2 r n x n m f.K.I.D.D.*X,X,X,X,X,X,X,Xx Z x x x H v ,X",
",X,X,X%.$X6.,X,X,X,X. 0 O O # 2 % < O O O O g v x c E #XI.D.D.D.`.,X,X,X,X,X,X,Xx n x x x K ,X,X",
",X,X,X,. Xd.,X,X,X,X,X= = O O O O O O O   2 x x x k @.W.D.D.D.OXA.,X,X,X,X,X,X,XC v x x n v ,X,X",
",X,X,X<.(.).,X,X,X,X,X,X: 5 @ O O O % 2 , j x V R z S.&XD.D.OX^.,X,X,X,X,X,X,Xn K x x x G x ,X,X",
",X,X,X4.~.}.@.,X,X,X,X,X,X; & 9 0 5 % % l T P F n ,XL.>X*X`._.,X,X,X,X,X,X,X,Xx D x x x H ,X,X,X",
",X,X,X#.(.E.u.,X,X,X,X,X,X,X,X,X,X,X,X,X,X,X,X,X,X,X,X@X,X,X,X,X,X,X,X,X,X,X,Xn n x x D x ,X,X,X",
",X,X,XX.|.D.]./ ,X,X,X,X,X,X,X,X,X,X,X,X,X,X,X,X,X,X,X,X,X,X,X,X,X,X,X,X,X,Xk H x x v D ,X,X,X,X",
",X,X,X( OXD.!.w.,X,X,X,X,X,X,X,X,X,X,X,X,X,X,X,X,X,X,X,X,X,X,X,X,X,X,X,X,X,XZ n x x K z ,X,X,X,X",
",X,X,X,Xm.F.D.[.` ,X,X,X,X,X,X,X,X,X,X,X,X,X,X,X,X,X,X,X,X,X,X,X,X,X,X,X,Xv F x x F b ,X,X,X,X,X",
",X,X,X,Xy.E.D.K.c.,X,X,X,X,X,X,X,X,X,X,X,X,X,X,X,X,X,X,X,X,X,X,X,X,X,X,Xx H x x Z Z ,X,X,X,X,X,X",
",X,X,X,Xo.|.D.D.Q.l.,X,X,X,X,X,X,X,X,X,X,X,X,X,X,X,X,X,X,X,X,X,X,X,X,X,XZ n x D v ,X,X,X,X,X,X,X",
",X,X,X,X,XN.F.D.D./.q.,X,X,X,X,X,X,X,X,X,X,X,X,X,X,X,X,X,X,X,X,X,X,X,XA V x H V ,X,X,X,X,X,X,X,X",
",X,X,X,X,X:.(.D.D.D./.i.,X,X,X,X,X,X,X,X,X,X,X,X,X,X,X,X,X,X,X,X,Xc V V V K n ,X,X,X,X,X,X,X,X,X",
",X,X,X,X,X,XB.G.D.D.D.E.v.] ,X,X,X,X,X,X,X,X,X,X,X,X,X,X,X,X,X,Xx H Z K n B ,X,X,X,X,X,X,X,X,X,X",
",X,X,X,X,X,X{ |.D.D.D.D.K.}.0.,X,X,X,X,X,X,X,X,X,X,X,X,X,X,Xv x T J v v ,X,X,X,X,X,X,X,X,X,X,X,X",
",X,X,X,X,X,X,Xr.~.D.D.D.D.D.!.V.:.,X,X,X,X,X,X,X,X,X,Xc n n D b v ,X,X,X,X,X,X,X,X,X,X,X,X,X,X,X",
",X,X,X,X,X,X,X,Xc.E.D.D.D.D.D.F.(.V.8. .,X,X,X,X,X,XB c v ,X,X,X,XI ,X,X,X,X,X,X,X,X,X,X,X,X,X,X",
",X,X,X,X,X,X,X,X! b.E.D.D.D.D.D.D.D.!.}.b.u.*.O._ ,X,X,X} [ -.s.9.,X,X,X,X,X,X,X,X,X,X,X,X,X,X,X",
",X,X,X,X,X,X,X,X,XQ n.E.D.D.D.D.D.D.D.D.K.E.{.|.[.].oX].XX.X%Xx.,X,X,X,X,X,X,X,X,X,X,X,X,X,X,X,X",
",X,X,X,X,X,X,X,X,X,XW z.{.D.D.D.D.D.D.D.D.D.D.D.D.D.D.D.K.|.e.,X,X,X,X,X,X,X,X,X,X,X,X,X,X,X,X,X",
",X,X,X,X,X,X,X,X,X,X,X,X:.'.~.G.D.D.D.D.D.D.D.D.D.D.K.(.V.$.,X,X,X,X,X,X,X,X,X,X,X,X,X,X,X,X,X,X",
",X,X,X,X,X,X,X,X,X,X,X,X,X^ 3.N.|.~.R.K.F.G.K.E.(..Xv.*.,X,X,X,X,X,X,X,X,X,X,X,X,X,X,X,X,X,X,X,X",
",X,X,X,X,X,X,X,X,X,X,X,X,X,X,X,X..5.p.h.C.M.g.a.>.' ,X,X,X,X,X,X,X,X,X,X,X,X,X,X,X,X,X,X,X,X,X,X",
",X,X,X,X,X,X,X,X,X,X,X,X,X,X,X,X,X,X,X,X,X,X,X,X,X,X,X,X,X,X,X,X,X,X,X,X,X,X,X,X,X,X,X,X,X,X,X,X"
};
