/* XPM */
static char *css48[] = {
/* columns rows colors chars-per-pixel */
"48 48 124 2 ",
"   c #3A6373",
".  c #31697D",
"X  c #4E6E7B",
"o  c #005B80",
"O  c #006186",
"+  c #01648A",
"@  c #00688F",
"#  c #0C698A",
"$  c #1F6985",
"%  c #026C94",
"&  c #096B92",
"*  c #006F99",
"=  c #136F91",
"-  c #0D7197",
";  c #00729D",
":  c #0D759D",
">  c #0D789F",
",  c #1C7294",
"<  c #17759A",
"1  c #1A7799",
"2  c #16789C",
"3  c #1F7A9C",
"4  c #316E87",
"5  c #23718D",
"6  c #3C7286",
"7  c #31748F",
"8  c #3F7488",
"9  c #247E9F",
"0  c #2A7D9B",
"q  c #347A95",
"w  c #3C7D96",
"e  c #317F9C",
"r  c #0076A3",
"t  c #0B77A1",
"y  c #0079A6",
"u  c #0C78A1",
"i  c #007CAB",
"p  c #127DA5",
"a  c #1D7EA2",
"s  c #137FA9",
"d  c #007FB0",
"f  c #257EA0",
"g  c #487486",
"h  c #577D8D",
"j  c #2D809F",
"k  c #3C819B",
"l  c #0080AF",
"z  c #0B81AB",
"x  c #1A80A6",
"c  c #1381A9",
"v  c #1985AD",
"b  c #0083B4",
"n  c #0885B4",
"m  c #0B88B7",
"M  c #0087B9",
"N  c #008ABC",
"B  c #1987B1",
"V  c #1D8BB4",
"C  c #2E82A3",
"Z  c #2D86A9",
"A  c #2B89AF",
"S  c #3285A5",
"D  c #3986A4",
"F  c #3C89A6",
"G  c #3788A8",
"H  c #3A89A9",
"J  c #208EB8",
"K  c #2192BB",
"L  c #3996B9",
"P  c #399ABE",
"I  c #40869F",
"U  c #578395",
"Y  c #5A8190",
"T  c #5E8A9B",
"R  c #66828D",
"E  c #678593",
"W  c #6B8490",
"Q  c #628E9F",
"!  c #6A8B9B",
"~  c #708F9D",
"^  c #498FAA",
"/  c #558EA4",
"(  c #5E8EA3",
")  c #4F91AA",
"_  c #5D90A6",
"`  c #4295B4",
"'  c #4E9CBB",
"]  c #5399B4",
"[  c #6999AC",
"{  c #008DC2",
"}  c #0091C6",
"|  c #0095CB",
" . c #0098CF",
".. c #0097D0",
"X. c #0099D2",
"o. c #009EDA",
"O. c #2697C1",
"+. c #2799C3",
"@. c #299BC6",
"#. c #2C9EC9",
"$. c #3B9EC3",
"%. c #00A1DE",
"&. c #2EA1CD",
"*. c #30A4CF",
"=. c #3AA4CC",
"-. c #31A6D2",
";. c #34AAD5",
":. c #3CAAD3",
">. c #37AEDB",
",. c #3DAED8",
"<. c #3AB1DE",
"1. c #00A4E2",
"2. c #00A7E8",
"3. c #00A8E8",
"4. c #3CB5E3",
"5. c #3EB8E6",
"6. c #3FBAE8",
"7. c #54A3C1",
"8. c #41B4E0",
"9. c #42BAE7",
"0. c #43BDEB",
"q. c #44C0EF",
"w. c #44C2F1",
"e. c None",
/* pixels */
"e.e.e.e.e.e.e.e.e.e.e.e.e.e.e.e.e.@ @ @ e.e.e.e.e.e.e.e.e.e.e.e.e.e.e.e.e.e.e.e.e.e.e.e.e.e.e.e.",
"e.e.e.e.e.e.e.e.e.e.e.e.; i l M } } } } { M b i ; e.e.e.e.e.e.e.e.e.e.e.e.e.e.e.e.e.e.e.e.e.e.e.",
"e.e.e.e.e.e.e.e.e.e.y M  . . . .|  .| | | |  . .| b i e.e.e.e.e.e.e.e.e.e.e.e.e.e.e.e.e.e.e.e.e.",
"e.e.e.e.e.e.e.e.y N  . . .} } | } }  .} | | } | |  . .{ i e.e.e.e.e.e.e.e.e.e.e.e.e.e.e.e.e.e.e.",
"e.e.e.e.e.e.e.b  . .}  .}  .| |  .} |  .|  .|  . . .| |  .M ; e.e.e.e.e.e.e.e.e.e.e.e.e.e.e.e.e.",
"e.e.e.e.e.* N  .}  .| } | } | }  . .| N b b b b b M N  . . .| y e.i  .M i e.e.e.e.e.e.e.e.e.e.e.",
"e.e.e.e.e.N  .|  .} }  .| }  . .M i ; e.e.e.e.e.e.e.e.; l M  . .l e.M 2.1.| d e.e.e.e.e.e.e.e.e.",
"e.e.e.e.M  .| | } | | }  . .M ; e.e.e.e.e.e.e.e.e.e.e.e.e.e.r M ..i e.N 1.%.1.} r e.e.e.e.e.e.e.",
"e.e.e.i  .| | | | | |  .M r e.e.e.e.e.e.e.e.e.e.e.e.e.e.e.e.e.e.i  .y e.| 1.%.1.o.i e.e.e.e.e.e.",
"e.e.; | | } | } | | | i e.e.G e.e.e.e.e.e.e.e.e.e.e.e.e.e.e.e.e.e.; M ; ; o.1.%.1.1.l e.e.e.e.e.",
"e.e.l  .| | | |  .} ; e.e.e.e.e.e.e.e.e.e.e.e.e.e.e.e.e.e.e.e.e.e.e.* i e.M 1.%.%.%.%.i e.e.e.e.",
"e.e.} | | } |  .N ; e.e.e.e.e.e.e.e.e.e.e.e.e.e.e.e.e.e.e.e.e.e.e.e.e.% % e.X.1.%.%.%.o.; e.e.e.",
"e.y  .| | }  .N * e.e.e.e.e.e.e.e.e.e.e.e.e.e.e.e.e.e.e.e.e.e.e.e.e.e.e.+ e.M 1.%.%.%.1.{ e.e.e.",
"e.b | | | | } ; e.e.e.e.e.e.e.e.e.e.e.e.e.e.e.e.e.e.e.e.e.e.e.e.e.e.e.e.e.e.; %.%.%.%.%.1.y e.e.",
"e.M  .| | | r e.e.H e.e.e.e.e.e.e.e.e.e.e.e.e.e.e.e.e.e.e.e.e.e.e.e.e.e.f e.e.{ 1.%.%.%.1.{ e.e.",
"e.{ | |  .l e.O e.e.e.e.e.e.e.e.e.e.e.e.e.e.e.e.e.e.e.e.e.e.e.e.e.e.e.e.e.e.e.b 2.%.%.%.%.o.e.e.",
"@ } | | } e.+ e.e.e.e.e.e.e.w 9 3 0 U e.e.e.e.e.e.e.e.e.e.e.e.e.e.e.e.e.e.C e.y 1.%.%.%.1.1.d e.",
"@ } |  .y e.u e.e.e.e.e.4 i |  ... .{ - W e.e.e.7 m  .X.N e.e.F =.,.<.) e.e.e.e.X.1.o.%.o.1.{ e.",
"e.}  .{ e.B t e.e.e.e.$ }  .} | | | | ..i E e., o.2.%.1.| X $.q.0.0.q.] e.e.e.e.} 1.1.%.1.1.| e.",
"e.M ..i e.@.e.e.e.e.g N  .| | | | | | | ..u   X.1.%.%.1.N j w.9.5.0.6.] e.e.e.e.{ 1.%.%.o.%.| e.",
"e.b  .% V &.e.e.e.e.t ..} | | } b | ......| % 1.%.%.o.2.} =.0.9.9.9.w.] e.e.e.e.{ 1.%.%.%.1. .e.",
"e.l M e.&.@.e.e.e.~ M  .|  .b 6 e.5 z z z p l 1.%.%.1.X.t =.0.9.9.0.=./ e.e.e.e.N 1.%.%.o.1. .e.",
"e.; y e.4.O.e.e.e._ } | |  .1 e.e.e.e.e.e.e.c 1.%.%.1.0 R 8.9.9.0.$.e.e.e.e.e.e.{ 1.%.%.1.1.| e.",
"e.e.+ c q.O.e.e.e.( { | | ..2 e.e.e.3 x c p i %.%.%...e./ 0.9.9.q.` e.e.e.e.e.e.{ 1.%.o.o.1.{ e.",
"e.e.e.K w.O.e.e.e.e.b  .| | N 5 h =  . .....N o.%.1.{ q :.0.9.9.0.) e.e.e.e.e.e.{ 1.%.%.%.2.b e.",
"e.e.e.K w.&.e.e.e.e.2 ..| |  .| { | | |  .{ { 1.o.1.m 8.0.9.9.9.4.T e.e.e.e.e.e.| 1.%.%.%.%.r e.",
"e.e.e.@.q.;.e.e.e.e.h b  .| | }  .| | | | M o.o.1.X.a 9.9.9.9.w.L e.e.e.e.e.e.e.X.1.%.%.%. .e.e.",
"e.e.e.@.0.5.> e.e.e.e.. M ..| | | | |  .N  .%.1.2.: ^ 6.9.0.0.:.Y e.e.e.e.e.e.i 1.%.%.o.2.b e.e.",
"e.e.e.@.0.q.J e.e.e.e.e.g t {  . .| b # { 3.1.| < e.' w.0.4.$.h e.e.e.e.e.e.e.M 1.%.%.%.o.e.e.e.",
"e.e.e.+.q.0.-.e.e.e.e.e.e.e.U k e w e.e.Z A D ! e.e.[ 7.] Q e.e.e.e.e.e.e.e.e...1.%.%.1.M e.e.e.",
"e.e.e.K q.9.9.c e.e.e.e.e.e.e.e.e.e.e.e.e.e.e.e.e.e.e.e.e.e.e.e.e.e.e.e.e.e.i 1.o.%.1.X.e.e.e.e.",
"e.e.e.v 0.9.0.#.e.G e.e.e.e.e.e.e.e.e.e.e.e.e.e.e.e.e.e.e.e.e.e.e.e.e.e.e.e. .1.%.%.2.d e.e.e.e.",
"e.e.e.e.4.0.9.9.v e.e.e.e.e.e.e.e.e.e.e.e.e.e.e.e.e.e.e.e.e.e.e.e.e.e.e.e.b 2.%.%.1.{ e.e.e.e.e.",
"e.e.e.e.*.0.9.0.>.2 e.e.e.e.e.e.e.e.e.e.e.e.e.e.e.e.e.e.e.e.e.e.e.e.e.e.y %.%.%.1.| e.e.e.e.e.e.",
"e.e.e.e.J q.9.9.0.-.e.e.e.e.e.e.e.e.e.e.e.e.e.e.e.e.e.e.e.e.e.e.e.e.e.; ..1.%.2.} e.e.e.e.e.e.e.",
"e.e.e.e.e.4.0.9.9.0.&.e.e.e.e.e.e.e.e.e.e.e.e.e.e.e.e.e.e.e.e.e.e.e.; ..1.%.1.{ e.e.e.e.e.e.e.e.",
"e.e.e.e.e.@.0.9.9.9.0.-.t e.S e.e.e.e.e.e.e.e.e.e.e.e.e.e.e.e.e.e.r ..1.1.%.b e.e.e.e.e.e.e.e.e.",
"e.e.e.e.e.t 4.0.9.9.9.0.4.V e.e.H e.e.e.e.e.e.e.e.e.e.e.e.e.e.e.b %.2.1.} y e.e.e.e.e.e.e.e.e.e.",
"e.e.e.e.e.e.K 0.9.9.9.9.0.0.&.p e.e.e.H e.e.e.e.e.e.e.e.e.e.d  .3.1.{ i e.e.e.e.e.e.e.e.e.e.e.e.",
"e.e.e.e.e.e.e.*.0.9.9.9.9.9.0.4.O.p e.e.e.e.e.e.e.e.e.r M | X.| b r e.e.e.e.e.e.e.e.e.e.e.e.e.e.",
"e.e.e.e.e.e.e.> <.0.9.9.9.9.9.0.0.5.#.V e.e.e.e.o + * y i ; e.e.e.& e.e.e.e.e.e.e.e.e.e.e.e.e.e.",
"e.e.e.e.e.e.e.e.p 4.0.9.9.9.9.9.9.9.0.0.4.*.+.J B c s s v J +.;.&.e.e.e.e.e.e.e.e.e.e.e.e.e.e.e.",
"e.e.e.e.e.e.e.e.e.s 4.0.9.9.9.9.9.9.9.9.9.0.0.0.0.0.0.0.9.0.w.>.u e.e.e.e.e.e.e.e.e.e.e.e.e.e.e.",
"e.e.e.e.e.e.e.e.e.e.u ;.q.9.9.9.9.9.9.9.9.9.9.9.9.9.9.9.0.0.&.e.e.e.e.e.e.e.e.e.e.e.e.e.e.e.e.e.",
"e.e.e.e.e.e.e.e.e.e.e.e.O.9.0.9.9.9.9.9.9.9.9.9.9.9.0.0.4.J e.e.e.e.e.e.e.e.e.e.e.e.e.e.e.e.e.e.",
"e.e.e.e.e.e.e.e.e.e.e.e.e.c #.4.q.0.0.0.9.9.0.0.0.0.4.+.p e.e.e.e.e.e.e.e.e.e.e.e.e.e.e.e.e.e.e.",
"e.e.e.e.e.e.e.e.e.e.e.e.e.e.e.e.V #.-.<.4.4.>.-.@.B e.e.e.e.e.e.e.e.e.e.e.e.e.e.e.e.e.e.e.e.e.e.",
"e.e.e.e.e.e.e.e.e.e.e.e.e.e.e.e.e.e.e.e.& & e.e.e.e.e.e.e.e.e.e.e.e.e.e.e.e.e.e.e.e.e.e.e.e.e.e."
};
