/* XPM */
static char *css48[] = {
/* columns rows colors chars-per-pixel */
"48 48 59 1 ",
"  c #005B80",
". c #006186",
"X c #01648A",
"o c #00688F",
"O c #036C93",
"+ c #096B92",
"@ c #006F99",
"# c #00729D",
"$ c #0D759D",
"% c #0076A2",
"& c #0D77A1",
"* c #0079A6",
"= c #0F79A1",
"- c #007CAB",
"; c #117DA5",
": c #137FA9",
"> c #0080AF",
", c #1481A9",
"< c #1985AD",
"1 c #0083B4",
"2 c #0087B9",
"3 c #008ABC",
"4 c #1987B1",
"5 c #1D8BB4",
"6 c #208FB8",
"7 c #2192BB",
"8 c #008DC2",
"9 c #0091C6",
"0 c #0095CB",
"q c #0098CF",
"w c #0097D0",
"e c #009AD3",
"r c #009FDB",
"t c #2696C1",
"y c #2799C3",
"u c #299BC6",
"i c #2C9EC9",
"p c #00A1DE",
"a c #09A5DF",
"s c #2EA1CC",
"d c #30A4CF",
"f c #31A6D1",
"g c #34AAD5",
"h c #37AEDB",
"j c #39B1DD",
"k c #00A4E2",
"l c #00A8E7",
"z c #00A9E9",
"x c #11AAE3",
"c c #27B0E4",
"v c #3BB5E3",
"b c #3EB8E6",
"n c #3FBAE8",
"m c #42BAE7",
"M c #43BDEA",
"N c #44C1EF",
"B c #45C2F1",
"V c #48CBFC",
"C c None",
/* pixels */
"CCCCCCCCCCCCCCCCCoooCCCCCCCCCCCCCCCCCCCCCCCCCCCC",
"CCCCCCCCCCCC@->28999821-#CCCCCCCCCCCCCCCCCCCCCCC",
"CCCCCCCCCC-2qqqq00000qqq01-CCCCCCCCCCCCCCCCCCCCC",
"CCCCCCCC-3qq0090000090000qq8-CCCCCCCCCCCCCCCCCCC",
"CCCCCCC1q090000090q0qqeqqq00q2#CCCCCCCCCCCCCCCCC",
"CCCCC@3q00q90900qq032>>>123qqq0*C-q2-CCCCCCCCCCC",
"CCCCC3q0909090q02-@CCCCCCCC%-3qq-C2lk0-CCCCCCCCC",
"CCCC2q0000000q2#CCCCCCCCCCCCCC%2e-C3kkk9%CCCCCCC",
"CCC-q00000002%CCCCCCCCCCCCCCCCCC-0*C0kpkr-CCCCCC",
"CC@00909000-CCCCCCCCCCCCCCCCCCCCC%3@#pkpkk>CCCCC",
"CC>q0000q9%CCCCCCCCCCCCCCCCCCCCCCC@*C2kpppk-CCCC",
"CC90090q3@CCCCCCCCCCCCCCCCCCCCCCCCC@OCekppke#CCC",
"C*q009q3@CCCCCCCCCCCCCCCCCCCCCCCCCCCXC2lpppk8CCC",
"C>q9009#CCCCCCCCCCCCCCCCCCCCCCCCCCCCCC#pppppk*CC",
"C2q000*CCCCCCCCCCCCCCCCCCCCCCCCCCCCCCCC8kpppk8CC",
"C900q>C.CCCCCCCCCCCCCCCCCCCCCCCCCCCCCCC>lpppkrCC",
"o90q9CXCCCCCCCC0qCCCCCCCCCCCCCCCCCCCCCC%kkrkrl-C",
"o90q*C=CCCCCCqeeeeqqCCCCCkpkpCCMMMBCCCCCekprkk8C",
"C8q3C4=CCCCCeq00000eqCCrlkkkpCMBMmBCCCCC9kpprk0C",
"C3e-CuCCCCCq00000900e0CkkppkrbBmmmBCCCCC8kpprk0C",
"C1qO5sCCCC0e00000qqqqqelppppabmmmmVCCCCC8kppppwC",
"C>2CsuCCCC00000CCCq009ekppppabmmmmMCCCCC8kpppkwC",
"C#*CvtCCCC000e0CCCCCCCplpplCCmmmMmCCCCCC8kpppk9C",
"CCX,NtCCCC090w0CCC0000ekpkkCCNmmBmCCCCCC8ppppk8C",
"CCC6ByCCCC00000CC0ewewepppkbMmmmBCCCCCCC8kprpk1C",
"CCC7BsCCCC0e000qqq0000rpkrxMMmmmMCCCCCCC0kpkpk%C",
"CCCuNgCCCCCq000009000qppppcMmmmMmCCCCCCCekkrkqCC",
"CCCuMb=CCCCCqq00000qqrpkzrmBmmBMCCCCCCC-kprrl1CC",
"CCCuMN6CCCCCCqqeee00pzlkpCMVBMMCCCCCCCC2kkrkrCCC",
"CCCtNMfCCCCCCCCCCCCCCCCCCCCBCCCCCCCCCCCekrpk2CCC",
"CCC7NmM:CCCCCCCCCCCCCCCCCCCCCCCCCCCCCC-kppkrCCCC",
"CCC<MmMiCCCCCCCCCCCCCCCCCCCCCCCCCCCCCC0kppk-CCCC",
"CCCCbmmM<CCCCCCCCCCCCCCCCCCCCCCCCCCCC2kkrl8CCCCC",
"CCCCdMmMj$CCCCCCCCCCCCCCCCCCCCCCCCCC%pkrk8CCCCCC",
"CCCC6MmmMfCCCCCCCCCCCCCCCCCCCCCCCCC#wkrl0CCCCCCC",
"CCCCCbmmmMsCCCCCCCCCCCCCCCCCCCCCCC#wkpl8CCCCCCCC",
"CCCCCyMmmmNd=CCCCCCCCCCCCCCCCCCCC*ekkp2CCCCCCCCC",
"CCCCC=bMmmmMj5CCCCCCCCCCCCCCCCCC1pkl9%CCCCCCCCCC",
"CCCCCC7MmmmmMMs=CCCCCCCCCCCCCC>qzp8-CCCCCCCCCCCC",
"CCCCCCCdMmmmmmMbt;CCCCCCCCC*10r91%CCCCCCCCCCCCCC",
"CCCCCCC$jMmmmmmMMbi4CCCC X@*-#CCC+CCCCCCCCCCCCCC",
"CCCCCCCC;vMMmmmmmmMNvdt64:::<6tgsCCCCCCCCCCCCCCC",
"CCCCCCCCC:vMmmmmmmmmmMNMMMMMMMBh=CCCCCCCCCCCCCCC",
"CCCCCCCCCC=gMmmmmmmmmmmmmmmmmNsCCCCCCCCCCCCCCCCC",
"CCCCCCCCCCCCumMmmmmmmmmmmmMMb6CCCCCCCCCCCCCCCCCC",
"CCCCCCCCCCCCC:ubNMMMMMMMMMvy=CCCCCCCCCCCCCCCCCCC",
"CCCCCCCCCCCCCCCC5ifjvjhdy5CCCCCCCCCCCCCCCCCCCCCC",
"CCCCCCCCCCCCCCCCCCCC++CCCCCCCCCCCCCCCCCCCCCCCCCC"
};
